<?xml version="1.0" standalone="no"?>
<!DOCTYPE svg PUBLIC "-//W3C//DTD SVG 20010904//EN"
 "http://www.w3.org/TR/2001/REC-SVG-20010904/DTD/svg10.dtd">
<svg version="1.0" xmlns="http://www.w3.org/2000/svg"
 width="206.000000pt" height="206.000000pt" viewBox="0 0 206.000000 206.000000"
 preserveAspectRatio="xMidYMid meet">

<g transform="translate(0.000000,206.000000) scale(0.100000,-0.100000)"
fill="#ED9455" stroke="#5356FF" >
<path d="M951 1751 c-9 -6 -16 -32 -19 -68 -4 -48 -11 -66 -43 -109 l-39 -51
0 -104 c0 -93 -2 -105 -20 -117 -15 -9 -20 -23 -20 -53 0 -32 4 -42 20 -46 34
-9 22 -22 -22 -25 -42 -3 -43 -4 -48 -45 -4 -30 -13 -47 -32 -63 -18 -14 -28
-31 -28 -48 l-1 -27 -30 35 c-17 19 -59 64 -94 100 -35 36 -70 81 -78 100
l-15 35 -16 -37 c-30 -69 -31 -137 -4 -204 21 -51 101 -187 154 -261 16 -22
15 -23 -12 -33 -68 -24 -107 -60 -65 -60 39 0 91 -29 109 -60 10 -18 25 -30
38 -30 12 0 29 -11 38 -25 25 -38 63 -52 159 -60 75 -6 87 -9 87 -25 0 -13 -9
-20 -27 -23 l-28 -4 28 -2 c16 0 30 -8 34 -18 25 -70 101 -70 126 0 4 10 17
17 34 18 24 0 25 1 8 8 -11 5 -23 7 -27 4 -5 -2 -8 -1 -8 4 0 13 69 34 135 42
73 8 99 21 114 59 10 23 17 28 36 24 19 -3 27 1 34 21 13 34 46 54 99 63 23 4
42 11 42 15 0 14 -59 47 -97 54 -34 6 -34 7 -19 28 54 72 130 193 151 239 30
63 34 156 9 218 -18 44 -34 53 -34 18 0 -13 -24 -44 -63 -82 -34 -34 -80 -83
-102 -109 l-38 -48 -13 30 c-7 16 -22 36 -33 43 -14 9 -21 23 -21 45 0 54 -8
63 -56 63 -24 0 -44 5 -44 10 0 6 6 10 14 10 31 0 35 71 6 100 -17 17 -20 33
-20 121 0 97 -1 103 -30 139 -37 47 -50 81 -50 130 0 57 -19 70 -98 70 -37 0
-73 -4 -81 -9z m150 -89 c5 -48 13 -74 37 -107 17 -24 26 -45 20 -47 -6 -2
-13 -45 -16 -96 -5 -105 -21 -123 -24 -29 l-2 62 -3 -63 c-5 -82 -22 -71 -25
16 l-2 67 -6 -75 -6 -75 -4 70 -3 70 -7 -60 c-7 -60 -7 -60 -10 -15 -5 68 -5
68 -13 76 -7 7 -12 -19 -7 -41 3 -19 -18 9 -23 30 -3 11 -5 -2 -6 -29 0 -27
-3 -47 -5 -45 -4 4 -17 73 -21 113 -1 12 -11 21 -25 23 -40 6 -36 13 7 13 49
0 53 9 53 122 0 76 0 77 28 81 54 8 57 6 63 -61z m-124 6 c-2 -13 -4 -5 -4 17
-1 22 1 32 4 23 2 -10 2 -28 0 -40z m-12 -198 c3 -5 1 -10 -4 -10 -6 0 -11 5
-11 10 0 6 2 10 4 10 3 0 8 -4 11 -10z m210 -190 c-8 -12 -212 -12 -240 0 -13
5 29 9 113 9 86 1 131 -3 127 -9z m0 -30 c12 -19 -26 -22 -163 -14 l-137 9 85
6 c148 9 209 9 215 -1z m-47 -67 c-3 -15 -16 -18 -86 -21 -77 -3 -82 -2 -82
18 0 19 6 20 86 20 76 0 85 -2 82 -17z m471 -64 c1 -20 -6 -54 -15 -74 -20
-49 -104 -174 -162 -243 -48 -57 -69 -64 -31 -10 13 18 22 39 21 46 -2 9 1 11
9 6 7 -4 10 -3 6 3 -4 6 0 16 9 23 8 7 24 27 36 44 11 17 -2 6 -30 -24 -32
-35 -46 -58 -39 -62 7 -4 2 -6 -11 -5 -36 2 -28 42 19 95 23 26 52 71 65 101
13 29 43 79 66 111 46 63 56 61 57 -11z m-1065 8 c21 -28 50 -77 64 -107 14
-30 43 -75 64 -99 38 -44 50 -92 26 -107 -6 -4 -9 -3 -5 2 3 5 -18 34 -46 65
-50 54 -48 44 3 -15 21 -24 22 -28 6 -22 -16 5 -17 4 -6 -9 7 -8 17 -12 23 -8
5 3 7 1 4 -4 -4 -6 2 -22 13 -36 28 -35 25 -45 -5 -17 -33 31 -135 181 -169
247 -19 38 -26 68 -26 108 0 30 3 55 8 55 4 0 24 -24 46 -53z m699 1 c-14 -15
-35 -18 -143 -18 -145 0 -217 8 -223 24 -3 8 50 11 189 11 183 0 192 -1 177
-17z m-3 -43 c0 -21 -316 -22 -375 0 -37 13 -25 14 168 15 177 0 207 -2 207
-15z m29 -63 c7 -16 10 -41 7 -56 -3 -15 -6 -86 -7 -159 -1 -105 2 -140 15
-171 10 -21 14 -41 11 -45 -4 -3 -118 -6 -253 -6 l-247 0 3 40 c7 75 5 280 -3
338 -7 54 -6 57 14 57 20 0 21 -4 22 -162 1 -118 4 -149 9 -113 5 28 9 100 9
162 l1 112 103 3 102 3 -95 11 -95 11 196 2 197 1 11 -28z m71 -217 c0 -178
-2 -215 -14 -215 -15 0 -20 28 -34 189 -6 68 -4 92 10 130 10 25 18 61 18 79
0 17 5 32 10 32 6 0 10 -78 10 -215z m-562 15 l-1 -55 -7 55 c-4 30 -10 69
-14 85 l-6 30 14 -30 c9 -16 15 -55 14 -85z m-94 -130 c28 -10 36 -40 11 -40
-22 0 -66 30 -59 41 7 11 17 11 48 -1z m796 6 c0 -5 -86 -56 -94 -56 -3 0 -6
11 -6 24 0 18 7 26 23 29 31 6 77 8 77 3z m-200 -145 c20 -6 22 -9 10 -16 -18
-12 -351 -10 -389 2 -47 14 327 29 379 14z m-190 -76 c0 -22 -4 -25 -35 -25
-19 0 -35 5 -35 10 0 6 11 10 24 10 13 0 26 7 30 15 8 23 16 18 16 -10z m-10
-55 c-11 -21 -19 -24 -44 -14 -25 10 -19 22 9 16 15 -2 25 0 25 7 0 6 5 11 10
11 7 0 7 -6 0 -20z"/>
<path d="M930 983 c-47 -18 -50 -29 -50 -183 0 -191 -6 -185 161 -175 163 10
159 5 159 178 0 72 -4 138 -9 146 -14 22 -224 49 -261 34z m174 -23 c33 -5 63
-15 68 -22 10 -16 10 -249 0 -264 -4 -7 -58 -15 -134 -19 l-128 -7 -11 28
c-11 30 -8 259 4 271 4 3 36 5 72 4 40 -1 65 2 65 8 0 6 1 11 3 11 1 0 29 -4
61 -10z"/>
<path d="M932 800 l3 -125 41 -5 c54 -8 64 -3 64 26 0 19 5 24 25 24 36 0 57
38 53 97 l-3 48 -58 3 c-33 2 -55 7 -52 13 4 5 15 9 25 9 13 0 17 5 14 14 -4
9 -25 15 -60 18 l-55 3 3 -125z m174 10 c1 -63 -12 -80 -63 -80 -33 0 -48 6
-68 27 -29 32 -33 78 -8 91 9 6 44 9 77 8 l61 -1 1 -45z"/>
<path d="M979 834 c-20 -25 -19 -37 8 -68 27 -31 83 -36 104 -8 13 15 12 16
-3 4 -9 -7 -32 -12 -50 -10 -32 3 -33 5 -38 52 -5 45 -6 47 -21 30z"/>
<path d="M1020 809 c0 -33 3 -40 16 -35 9 3 23 6 32 7 10 1 7 4 -8 9 -17 5
-19 8 -7 9 9 1 17 6 17 12 0 5 -4 8 -9 4 -5 -3 -12 -1 -16 5 -3 6 4 10 16 10
28 0 23 5 -13 14 -27 6 -28 5 -28 -35z"/>
<path d="M820 632 c0 -18 5 -32 10 -32 6 0 8 11 4 28 -10 39 -14 40 -14 4z"/>
<path d="M1357 1213 c-10 -9 -9 -23 2 -23 5 0 11 7 15 15 5 15 -5 20 -17 8z"/>
<path d="M630 1148 c0 -9 9 -26 20 -39 l21 -24 -17 35 c-21 43 -24 47 -24 28z"/>
<path d="M1421 1136 c-6 -16 -14 -33 -17 -37 -3 -5 -1 -9 5 -9 15 0 33 38 28
58 -3 13 -7 10 -16 -12z"/>
<path d="M1634 856 c-10 -8 -16 -17 -12 -21 8 -8 48 13 48 25 0 14 -13 12 -36
-4z"/>
</g>
</svg>
